<mxfile host="app.diagrams.net" modified="2023-06-12T02:44:57.136Z" agent="Mozilla/5.0 (Windows NT 10.0; Win64; x64) AppleWebKit/537.36 (KHTML, like Gecko) Chrome/114.0.0.0 Safari/537.36" version="21.3.8" etag="ysqPpouAvBA-hQdDBOEi" type="github">
  <diagram name="第 1 页" id="LMjty46DVQN2J_8qfdhZ">
    <mxGraphModel>
      <root>
        <mxCell id="0" />
        <mxCell id="1" parent="0" />
      </root>
    </mxGraphModel>
  </diagram>
</mxfile>
